<svg xmlns="http://www.w3.org/2000/svg" viewBox="0 0 1200 630" width="1200" height="630" role="img" aria-label="Inteligencia artificial para negocios">
  <defs>
    <linearGradient id="bg" x1="0" y1="0" x2="1" y2="1">
      <stop offset="0" stop-color="#0b1120"/>
      <stop offset="1" stop-color="#0f172a"/>
    </linearGradient>
    <radialGradient id="orbA" cx="0.5" cy="0.5" r="0.5">
      <stop offset="0" stop-color="#D91023" stop-opacity="0.5"/>
      <stop offset="1" stop-color="#D91023" stop-opacity="0"/>
    </radialGradient>
    <radialGradient id="orbB" cx="0.5" cy="0.5" r="0.5">
      <stop offset="0" stop-color="#E8A317" stop-opacity="0.45"/>
      <stop offset="1" stop-color="#E8A317" stop-opacity="0"/>
    </radialGradient>
  </defs>
  <rect width="1200" height="630" fill="url(#bg)"/>
  <circle cx="230" cy="150" r="360" fill="url(#orbA)"/>
  <circle cx="1010" cy="520" r="380" fill="url(#orbB)"/>
  <g fill="none" stroke="#ffffff" stroke-opacity="0.06" stroke-width="1">
    <path d="M0 210 H1200 M0 420 H1200 M300 0 V630 M600 0 V630 M900 0 V630"/>
  </g>
  <g transform="translate(600 300)">
    <circle r="150" fill="none" stroke="#ffffff" stroke-opacity="0.16" stroke-width="2"/>
    <circle r="150" fill="#ffffff" fill-opacity="0.03"/>
    <g transform="translate(-60 -60)" fill="none" stroke="#ffffff" stroke-width="10" stroke-linecap="round" stroke-linejoin="round">
      <rect x="24" y="34" width="72" height="62" rx="12"/>
      <line x1="60" y1="16" x2="60" y2="34"/>
      <circle cx="60" cy="10" r="6" fill="#ffffff" stroke="none"/>
      <line x1="8" y1="56" x2="24" y2="56"/>
      <line x1="96" y1="56" x2="112" y2="56"/>
      <circle cx="46" cy="62" r="7" fill="#E8A317" stroke="none"/>
      <circle cx="74" cy="62" r="7" fill="#E8A317" stroke="none"/>
      <line x1="46" y1="80" x2="74" y2="80"/>
    </g>
  </g>
  <text x="600" y="530" text-anchor="middle" font-family="'Space Grotesk','Segoe UI',sans-serif" font-size="34" font-weight="600" letter-spacing="8" fill="#E8A317">INTELIGENCIA ARTIFICIAL · MYPES</text>
</svg>
